<svg viewBox="0 0 142 43" xmlns="http://www.w3.org/2000/svg" data-logo="logo">
        <g transform="translate(0, 1) rotate(0)" id="logogram" style="opacity: 1;"><path fill="#B6EFA2" d="M39.3285 32.987C43.1874 29.5411 45.5538 24.8908 45.5538 19.7738C45.5538 9.15126 35.3562 0.539978 22.7769 0.539978C10.1976 0.539978 0 9.15126 0 19.7738C0 30.3963 10.1976 39.0076 22.7769 39.0076C26.3456 39.0076 29.7226 38.3146 32.7295 37.0791C36.2616 39.2593 40.5891 40.8264 45.3684 40.4959C42.8435 39.8541 40.6717 37.2542 39.3285 32.987Z"></path><path fill="#88E169" d="M39.48 19.7738C39.48 27.6009 32.0018 33.9461 22.7769 33.9461C13.5521 33.9461 6.07385 27.6009 6.07385 19.7738C6.07385 11.9466 13.5521 5.6015 22.7769 5.6015C32.0018 5.6015 39.48 11.9466 39.48 19.7738Z"></path><path fill="#55AE36" d="M33.4061 19.7738C33.4061 24.8056 28.6473 28.8846 22.7769 28.8846C16.9065 28.8846 12.1477 24.8056 12.1477 19.7738C12.1477 14.742 16.9065 10.6631 22.7769 10.6631C28.6473 10.6631 33.4061 14.742 33.4061 19.7738Z"></path></g>
        <g transform="translate(52, 11)" id="logotype" style="opacity: 1;"><path d="M24.20 16.31L24.20 16.31Q24.20 17.18 23.70 18.09Q23.19 19.00 22.25 19.77Q21.30 20.54 19.94 21.01Q18.59 21.49 16.84 21.49L16.84 21.49Q13.91 21.49 11.80 20.18Q9.68 18.87 8.53 16.58Q7.39 14.29 7.39 11.34L7.39 11.34Q7.39 9.09 8.06 7.20Q8.74 5.31 9.96 3.91Q11.18 2.51 12.85 1.74Q14.51 0.98 16.47 0.98L16.47 0.98Q17.98 0.98 18.93 1.30Q19.87 1.62 20.40 1.95Q20.92 2.28 21.16 2.28L21.16 2.28Q21.47 2.28 21.58 2.01Q21.68 1.74 21.79 1.47Q21.89 1.20 22.20 1.20L22.20 1.20Q22.35 1.20 22.46 1.29Q22.56 1.39 22.63 1.62L22.63 1.62L24.14 6.31Q24.23 6.54 24.12 6.71Q24.02 6.87 23.79 6.89L23.79 6.89Q23.60 6.92 23.45 6.82Q23.30 6.73 23.21 6.54L23.21 6.54Q22.41 4.89 21.44 3.84Q20.46 2.80 19.27 2.32Q18.07 1.83 16.57 1.83L16.57 1.83Q15.10 1.83 13.83 2.47Q12.55 3.11 11.61 4.28Q10.66 5.46 10.13 7.09Q9.60 8.72 9.60 10.72L9.60 10.72Q9.60 13.68 10.63 15.79Q11.67 17.91 13.43 19.03Q15.20 20.15 17.41 20.15L17.41 20.15Q19.68 20.15 21.22 19.13Q22.76 18.12 23.49 16.35L23.49 16.35Q23.58 16.16 23.70 16.07Q23.81 15.99 23.95 16.00L23.95 16.00Q24.06 16.02 24.13 16.09Q24.20 16.16 24.20 16.31ZM29.62 1.06L29.62 1.06L29.62 19.39Q29.62 19.71 29.78 19.89Q29.94 20.08 30.23 20.13L30.23 20.13L30.96 20.27Q31.40 20.38 31.40 20.65L31.40 20.65Q31.40 21 30.89 21L30.89 21L26.30 21Q26.06 21 25.94 20.91Q25.81 20.82 25.81 20.66L25.81 20.66Q25.81 20.52 25.92 20.43Q26.03 20.34 26.26 20.29L26.26 20.29L27.04 20.13Q27.34 20.06 27.50 19.89Q27.66 19.73 27.66 19.40L27.66 19.40L27.66 2.67Q27.66 2.39 27.55 2.27Q27.45 2.14 27.21 2.13L27.21 2.13L26.05 2.11Q25.82 2.10 25.73 2.02Q25.64 1.95 25.64 1.83L25.64 1.83Q25.64 1.69 25.74 1.60Q25.84 1.51 26.09 1.43L26.09 1.43L28.13 0.74Q28.48 0.62 28.71 0.57Q28.93 0.52 29.09 0.52L29.09 0.52Q29.35 0.52 29.48 0.66Q29.62 0.80 29.62 1.06ZM29.90 10.70L29.25 11.23L28.81 10.79L29.48 10.22Q31.03 8.88 32.15 8.29Q33.27 7.71 34.36 7.71L34.36 7.71Q36.02 7.71 36.91 8.79Q37.79 9.87 38.02 11.73L38.02 11.73L38.94 19.32Q38.98 19.68 39.14 19.88Q39.31 20.08 39.63 20.15L39.63 20.15L40.30 20.29Q40.52 20.34 40.64 20.43Q40.75 20.52 40.75 20.66L40.75 20.66Q40.75 20.82 40.63 20.91Q40.51 21 40.26 21L40.26 21L35.62 21Q35.12 21 35.12 20.65L35.12 20.65Q35.12 20.38 35.54 20.27L35.54 20.27L36.32 20.13Q36.65 20.08 36.83 19.87Q37.01 19.67 36.97 19.32L36.97 19.32L36.04 12.05Q35.85 10.50 35.22 9.72Q34.59 8.93 33.41 8.93L33.41 8.93Q32.67 8.93 31.82 9.37Q30.96 9.80 29.90 10.70L29.90 10.70ZM50.11 19.33L50.11 19.33L50.11 19.08L50.03 18.97L50.03 11.33Q50.03 9.88 49.32 9.13Q48.60 8.39 47.27 8.39L47.27 8.39Q45.97 8.39 45.35 8.91Q44.74 9.44 44.74 10.15L44.74 10.15L44.74 11.10Q44.74 11.62 44.42 11.89Q44.09 12.15 43.55 12.15L43.55 12.15Q43.07 12.15 42.79 11.87Q42.51 11.58 42.51 11.10L42.51 11.10Q42.51 10.26 43.13 9.48Q43.76 8.71 44.91 8.21Q46.05 7.71 47.65 7.71L47.65 7.71Q49.83 7.71 50.91 8.72Q51.98 9.73 51.98 11.40L51.98 11.40L51.98 19.26Q51.98 19.78 52.16 20.00Q52.35 20.22 52.66 20.22L52.66 20.22Q53.04 20.22 53.19 20.05Q53.35 19.88 53.46 19.71L53.46 19.71Q53.52 19.63 53.58 19.57Q53.64 19.50 53.75 19.50L53.75 19.50Q53.87 19.50 53.92 19.59Q53.98 19.67 53.98 19.82L53.98 19.82Q53.98 20.16 53.76 20.50Q53.54 20.83 53.13 21.06Q52.72 21.29 52.10 21.29L52.10 21.29Q51.14 21.29 50.63 20.82Q50.11 20.34 50.11 19.33ZM41.84 18.12L41.84 18.12Q41.84 16.53 43.24 15.49Q44.64 14.45 47.10 14.45L47.10 14.45Q48.11 14.45 48.97 14.65Q49.82 14.85 50.49 15.15L50.49 15.15L50.35 15.75Q49.68 15.48 48.95 15.29Q48.22 15.11 47.37 15.11L47.37 15.11Q45.75 15.11 44.84 15.84Q43.93 16.58 43.93 17.82L43.93 17.82Q43.93 19.01 44.65 19.66Q45.37 20.30 46.49 20.30L46.49 20.30Q47.59 20.30 48.63 19.80Q49.67 19.31 50.44 18.34L50.44 18.34L50.70 18.84Q49.82 20.02 48.51 20.66Q47.20 21.29 45.75 21.29L45.75 21.29Q44.02 21.29 42.93 20.45Q41.84 19.60 41.84 18.12ZM56.19 8.90L56.19 8.90L55.35 8.71Q54.97 8.61 54.85 8.50Q54.73 8.40 54.73 8.27L54.73 8.27Q54.73 8.12 54.85 8.04Q54.96 7.95 55.17 7.95L55.17 7.95L56.11 7.95Q56.51 7.95 56.74 7.85Q56.96 7.74 57.07 7.43L57.07 7.43L57.80 5.47Q57.93 5.21 58.07 5.08Q58.22 4.96 58.40 4.96L58.40 4.96Q58.58 4.96 58.69 5.07Q58.79 5.19 58.79 5.39L58.79 5.39L58.79 18.07Q58.79 19.03 59.21 19.52Q59.62 20.02 60.35 20.02L60.35 20.02Q60.85 20.02 61.14 19.88Q61.43 19.74 61.59 19.55Q61.75 19.36 61.87 19.21Q62 19.07 62.18 19.05L62.18 19.05Q62.32 19.05 62.39 19.14Q62.46 19.24 62.46 19.42L62.46 19.42Q62.46 19.82 62.11 20.23Q61.76 20.64 61.15 20.92Q60.53 21.20 59.73 21.20L59.73 21.20Q58.43 21.20 57.63 20.49Q56.82 19.78 56.82 18.35L56.82 18.35L56.82 9.67Q56.82 9.35 56.69 9.17Q56.55 8.99 56.19 8.90ZM61.45 8.78L57.70 8.78L57.72 7.95L61.87 7.95Q62.11 7.95 62.23 8.04Q62.35 8.12 62.35 8.29L62.35 8.29Q62.35 8.50 62.13 8.64Q61.90 8.78 61.45 8.78L61.45 8.78ZM65.63 21.20L65.63 21.20Q65.18 21.20 64.80 20.96Q64.42 20.73 64.20 20.35Q63.97 19.96 63.97 19.53L63.97 19.53Q63.97 19.05 64.20 18.68Q64.42 18.30 64.80 18.07Q65.18 17.85 65.63 17.85L65.63 17.85Q66.09 17.85 66.46 18.07Q66.83 18.30 67.05 18.68Q67.26 19.05 67.26 19.53L67.26 19.53Q67.26 19.96 67.05 20.35Q66.83 20.73 66.46 20.96Q66.09 21.20 65.63 21.20ZM77.69 19.33L77.69 19.33L77.69 19.08L77.61 18.97L77.61 11.33Q77.61 9.88 76.90 9.13Q76.18 8.39 74.85 8.39L74.85 8.39Q73.55 8.39 72.93 8.91Q72.32 9.44 72.32 10.15L72.32 10.15L72.32 11.10Q72.32 11.62 72.00 11.89Q71.67 12.15 71.13 12.15L71.13 12.15Q70.65 12.15 70.37 11.87Q70.09 11.58 70.09 11.10L70.09 11.10Q70.09 10.26 70.71 9.48Q71.34 8.71 72.49 8.21Q73.63 7.71 75.23 7.71L75.23 7.71Q77.41 7.71 78.48 8.72Q79.56 9.73 79.56 11.40L79.56 11.40L79.56 19.26Q79.56 19.78 79.74 20.00Q79.93 20.22 80.24 20.22L80.24 20.22Q80.62 20.22 80.77 20.05Q80.93 19.88 81.04 19.71L81.04 19.71Q81.10 19.63 81.16 19.57Q81.22 19.50 81.33 19.50L81.33 19.50Q81.45 19.50 81.50 19.59Q81.56 19.67 81.56 19.82L81.56 19.82Q81.56 20.16 81.34 20.50Q81.12 20.83 80.71 21.06Q80.30 21.29 79.68 21.29L79.68 21.29Q78.72 21.29 78.20 20.82Q77.69 20.34 77.69 19.33ZM69.42 18.12L69.42 18.12Q69.42 16.53 70.82 15.49Q72.22 14.45 74.68 14.45L74.68 14.45Q75.69 14.45 76.55 14.65Q77.40 14.85 78.07 15.15L78.07 15.15L77.93 15.75Q77.26 15.48 76.53 15.29Q75.80 15.11 74.95 15.11L74.95 15.11Q73.33 15.11 72.42 15.84Q71.51 16.58 71.51 17.82L71.51 17.82Q71.51 19.01 72.23 19.66Q72.95 20.30 74.07 20.30L74.07 20.30Q75.17 20.30 76.21 19.80Q77.25 19.31 78.02 18.34L78.02 18.34L78.28 18.84Q77.40 20.02 76.09 20.66Q74.78 21.29 73.33 21.29L73.33 21.29Q71.60 21.29 70.51 20.45Q69.42 19.60 69.42 18.12ZM86.78 8.41L86.78 8.41L86.78 19.39Q86.78 19.71 86.94 19.89Q87.10 20.08 87.40 20.13L87.40 20.13L88.14 20.27Q88.36 20.33 88.48 20.42Q88.60 20.51 88.60 20.66L88.60 20.66Q88.60 20.82 88.47 20.91Q88.35 21 88.10 21L88.10 21L83.46 21Q83.22 21 83.10 20.91Q82.99 20.82 82.99 20.66L82.99 20.66Q82.99 20.52 83.09 20.43Q83.20 20.34 83.42 20.29L83.42 20.29L84.20 20.13Q84.50 20.06 84.66 19.89Q84.82 19.73 84.82 19.40L84.82 19.40L84.82 10.02Q84.82 9.74 84.72 9.62Q84.62 9.49 84.37 9.48L84.37 9.48L83.21 9.46Q82.99 9.45 82.89 9.37Q82.80 9.30 82.80 9.17L82.80 9.17Q82.80 9.04 82.90 8.95Q83.00 8.86 83.25 8.78L83.25 8.78L85.30 8.08Q85.66 7.97 85.88 7.91Q86.11 7.85 86.25 7.85L86.25 7.85Q86.51 7.85 86.65 8.00Q86.78 8.15 86.78 8.41ZM85.49 4.80L85.49 4.80Q84.79 4.80 84.35 4.38Q83.91 3.95 83.91 3.32L83.91 3.32Q83.91 2.69 84.35 2.27Q84.79 1.85 85.49 1.85L85.49 1.85Q86.19 1.85 86.64 2.27Q87.09 2.70 87.09 3.32L87.09 3.32Q87.09 3.95 86.64 4.38Q86.19 4.80 85.49 4.80Z" fill="#ffffff"></path></g>
        
      </svg>