
      <svg data-logo="logo" xmlns="http://www.w3.org/2000/svg" viewBox="0 0 154 43">
        <g id="logogram" transform="translate(0, 1) rotate(0) "><path d="M39.3285 32.987C43.1874 29.5411 45.5538 24.8908 45.5538 19.7738C45.5538 9.15126 35.3562 0.539978 22.7769 0.539978C10.1976 0.539978 0 9.15126 0 19.7738C0 30.3963 10.1976 39.0076 22.7769 39.0076C26.3456 39.0076 29.7226 38.3146 32.7295 37.0791C36.2616 39.2593 40.5891 40.8264 45.3684 40.4959C42.8435 39.8541 40.6717 37.2542 39.3285 32.987Z" fill="#B6EFA2"/><path d="M39.48 19.7738C39.48 27.6009 32.0018 33.9461 22.7769 33.9461C13.5521 33.9461 6.07385 27.6009 6.07385 19.7738C6.07385 11.9466 13.5521 5.6015 22.7769 5.6015C32.0018 5.6015 39.48 11.9466 39.48 19.7738Z" fill="#88E169"/><path d="M33.4061 19.7738C33.4061 24.8056 28.6473 28.8846 22.7769 28.8846C16.9065 28.8846 12.1477 24.8056 12.1477 19.7738C12.1477 14.742 16.9065 10.6631 22.7769 10.6631C28.6473 10.6631 33.4061 14.742 33.4061 19.7738Z" fill="#55AE36"/></g>
        <g id="logotype" transform="translate(52, 10)"><path fill="#111111" d="M25.07 16.60L25.07 16.60Q25.07 17.65 24.51 18.70Q23.95 19.75 22.89 20.62Q21.83 21.50 20.34 22.02Q18.85 22.55 16.98 22.55L16.98 22.55Q13.90 22.55 11.65 21.24Q9.40 19.93 8.18 17.62Q6.97 15.31 6.97 12.31L6.97 12.31Q6.97 10.06 7.69 8.15Q8.42 6.25 9.73 4.84Q11.04 3.44 12.79 2.66Q14.54 1.88 16.60 1.88L16.60 1.88Q17.94 1.88 18.79 2.13Q19.64 2.37 20.13 2.63Q20.63 2.89 20.94 2.89L20.94 2.89Q21.32 2.89 21.54 2.66Q21.76 2.43 22.00 2.20Q22.24 1.98 22.62 1.98L22.62 1.98Q22.93 1.98 23.12 2.17Q23.32 2.36 23.44 2.81L23.44 2.81L24.90 7.72Q25.01 8.08 24.82 8.38Q24.62 8.67 24.24 8.77L24.24 8.77Q23.85 8.85 23.53 8.70Q23.21 8.55 23.02 8.14L23.02 8.14Q22.28 6.46 21.39 5.49Q20.50 4.53 19.51 4.12Q18.52 3.72 17.41 3.72L17.41 3.72Q16.28 3.72 15.35 4.25Q14.43 4.78 13.77 5.77Q13.11 6.75 12.76 8.15Q12.41 9.54 12.41 11.28L12.41 11.28Q12.41 14.03 13.20 15.90Q13.99 17.77 15.39 18.72Q16.78 19.68 18.59 19.68L18.59 19.68Q20.25 19.68 21.55 18.85Q22.84 18.02 23.63 16.48L23.63 16.48Q23.82 16.09 24.05 15.97Q24.28 15.85 24.56 15.91L24.56 15.91Q24.83 15.95 24.95 16.13Q25.07 16.30 25.07 16.60ZM32.39 2.09L32.39 2.09L32.39 19.44Q32.39 19.93 32.49 20.14Q32.60 20.35 32.82 20.45L32.82 20.45L33.23 20.60Q33.68 20.82 33.68 21.26L33.68 21.26Q33.68 22 32.77 22L32.77 22L26.94 22Q26.48 22 26.27 21.81Q26.05 21.62 26.05 21.30L26.05 21.30Q26.05 21.06 26.18 20.88Q26.31 20.70 26.59 20.59L26.59 20.59L27.03 20.45Q27.27 20.36 27.36 20.14Q27.46 19.93 27.46 19.44L27.46 19.44L27.46 4.81Q27.46 4.42 27.35 4.25Q27.24 4.08 27 4.02L27 4.02L26.48 3.94Q26.20 3.87 26.08 3.72Q25.96 3.56 25.96 3.32L25.96 3.32Q25.96 3.04 26.13 2.88Q26.29 2.71 26.71 2.55L26.71 2.55L29.60 1.46Q30.21 1.24 30.59 1.13Q30.98 1.03 31.31 1.03L31.31 1.03Q31.84 1.03 32.12 1.32Q32.39 1.62 32.39 2.09ZM32.46 12.16L31.93 12.62L31.20 11.85L31.68 11.42Q33.54 9.71 34.87 8.99Q36.20 8.27 37.35 8.27L37.35 8.27Q39.12 8.27 40.11 9.46Q41.10 10.65 41.28 12.61L41.28 12.61L41.99 19.42Q42.05 19.91 42.13 20.14Q42.22 20.36 42.46 20.45L42.46 20.45L42.86 20.59Q43.14 20.71 43.28 20.89Q43.41 21.06 43.41 21.30L43.41 21.30Q43.41 21.62 43.19 21.81Q42.97 22 42.51 22L42.51 22L36.63 22Q35.71 22 35.71 21.26L35.71 21.26Q35.71 20.82 36.16 20.60L36.16 20.60L36.58 20.45Q36.81 20.35 36.94 20.13Q37.07 19.91 37.01 19.42L37.01 19.42L36.38 13.31Q36.27 12.24 35.86 11.72Q35.44 11.19 34.62 11.19L34.62 11.19Q34.11 11.19 33.56 11.44Q33.01 11.68 32.46 12.16L32.46 12.16ZM52.21 20.15L52.21 20.15L52.21 19.86L51.86 19.82L51.86 11.11Q51.86 10.35 51.47 9.92Q51.08 9.48 50.38 9.48L50.38 9.48Q49.78 9.48 49.42 9.75Q49.06 10.02 49.06 10.42L49.06 10.42L49.06 11.81Q49.06 12.82 48.38 13.36Q47.69 13.91 46.45 13.91L46.45 13.91Q45.38 13.91 44.84 13.44Q44.30 12.97 44.30 12.12L44.30 12.12Q44.30 11.22 45.09 10.34Q45.87 9.46 47.42 8.87Q48.97 8.28 51.28 8.28L51.28 8.28Q54.03 8.28 55.38 9.34Q56.74 10.41 56.74 12.24L56.74 12.24L56.74 19.23Q56.74 19.56 56.88 19.75Q57.03 19.93 57.31 19.93L57.31 19.93Q57.59 19.93 57.74 19.79Q57.88 19.65 58.01 19.51L58.01 19.51Q58.09 19.42 58.19 19.35Q58.28 19.28 58.40 19.28L58.40 19.28Q58.61 19.28 58.70 19.43Q58.79 19.58 58.79 19.82L58.79 19.82Q58.79 20.36 58.41 20.95Q58.02 21.54 57.25 21.95Q56.48 22.36 55.34 22.36L55.34 22.36Q53.94 22.36 53.08 21.75Q52.21 21.15 52.21 20.15ZM43.76 19.05L43.76 19.05Q43.76 17.21 45.40 16.12Q47.05 15.03 50.02 15.03L50.02 15.03Q50.88 15.03 51.56 15.16Q52.23 15.29 52.69 15.53L52.69 15.53L52.30 16.58Q51.92 16.39 51.54 16.29Q51.16 16.19 50.72 16.19L50.72 16.19Q49.79 16.19 49.27 16.71Q48.74 17.24 48.74 18.21L48.74 18.21Q48.74 19.19 49.22 19.70Q49.69 20.21 50.45 20.21L50.45 20.21Q51.02 20.21 51.56 19.94Q52.09 19.68 52.41 19.24L52.41 19.24L52.73 20.19Q52.00 21.23 50.72 21.80Q49.44 22.36 47.99 22.36L47.99 22.36Q46.10 22.36 44.93 21.43Q43.76 20.50 43.76 19.05ZM59.72 10.21L59.72 10.21L59.16 10.03Q58.84 9.90 58.70 9.74Q58.56 9.57 58.56 9.33L58.56 9.33Q58.56 8.99 58.78 8.81Q59.00 8.63 59.38 8.63L59.38 8.63L60.19 8.63Q60.49 8.63 60.72 8.50Q60.95 8.38 61.24 8.03L61.24 8.03L63.18 5.80Q63.54 5.40 63.87 5.20Q64.20 5.00 64.52 5.00L64.52 5.00Q64.86 5.00 65.05 5.23Q65.25 5.45 65.25 5.87L65.25 5.87L65.25 17.46Q65.25 18.47 65.62 19.00Q65.99 19.52 66.66 19.52L66.66 19.52Q67.18 19.52 67.47 19.29Q67.75 19.06 67.93 18.76Q68.10 18.46 68.28 18.22Q68.45 17.98 68.75 17.97L68.75 17.97Q68.99 17.97 69.13 18.14Q69.27 18.30 69.27 18.70L69.27 18.70Q69.27 19.69 68.67 20.52Q68.08 21.34 67.03 21.84Q65.98 22.34 64.63 22.34L64.63 22.34Q62.59 22.34 61.46 21.34Q60.33 20.35 60.33 18.32L60.33 18.32L60.33 11.08Q60.33 10.69 60.19 10.51Q60.04 10.34 59.72 10.21ZM67.28 10.30L63.46 10.30L63.46 8.63L68.33 8.63Q68.71 8.63 68.92 8.79Q69.14 8.95 69.14 9.25L69.14 9.25Q69.14 9.69 68.71 9.99Q68.27 10.30 67.28 10.30L67.28 10.30ZM73.09 22.36L73.09 22.36Q72.28 22.36 71.62 21.95Q70.96 21.54 70.58 20.86Q70.19 20.18 70.19 19.40L70.19 19.40Q70.19 18.57 70.58 17.91Q70.96 17.24 71.62 16.84Q72.28 16.44 73.09 16.44L73.09 16.44Q73.91 16.44 74.57 16.84Q75.23 17.24 75.61 17.91Q75.99 18.57 75.99 19.40L75.99 19.40Q75.99 20.18 75.61 20.86Q75.23 21.54 74.57 21.95Q73.91 22.36 73.09 22.36ZM85.86 20.15L85.86 20.15L85.86 19.86L85.51 19.82L85.51 11.11Q85.51 10.35 85.11 9.92Q84.72 9.48 84.02 9.48L84.02 9.48Q83.42 9.48 83.06 9.75Q82.71 10.02 82.71 10.42L82.71 10.42L82.71 11.81Q82.71 12.82 82.02 13.36Q81.33 13.91 80.09 13.91L80.09 13.91Q79.02 13.91 78.48 13.44Q77.95 12.97 77.95 12.12L77.95 12.12Q77.95 11.22 78.73 10.34Q79.51 9.46 81.06 8.87Q82.61 8.28 84.92 8.28L84.92 8.28Q87.68 8.28 89.03 9.34Q90.38 10.41 90.38 12.24L90.38 12.24L90.38 19.23Q90.38 19.56 90.52 19.75Q90.67 19.93 90.95 19.93L90.95 19.93Q91.23 19.93 91.38 19.79Q91.53 19.65 91.65 19.51L91.65 19.51Q91.74 19.42 91.83 19.35Q91.92 19.28 92.04 19.28L92.04 19.28Q92.25 19.28 92.34 19.43Q92.44 19.58 92.44 19.82L92.44 19.82Q92.44 20.36 92.05 20.95Q91.67 21.54 90.90 21.95Q90.13 22.36 88.98 22.36L88.98 22.36Q87.58 22.36 86.72 21.75Q85.86 21.15 85.86 20.15ZM77.40 19.05L77.40 19.05Q77.40 17.21 79.04 16.12Q80.69 15.03 83.66 15.03L83.66 15.03Q84.53 15.03 85.20 15.16Q85.87 15.29 86.33 15.53L86.33 15.53L85.94 16.58Q85.56 16.39 85.18 16.29Q84.81 16.19 84.36 16.19L84.36 16.19Q83.43 16.19 82.91 16.71Q82.38 17.24 82.38 18.21L82.38 18.21Q82.38 19.19 82.86 19.70Q83.34 20.21 84.09 20.21L84.09 20.21Q84.67 20.21 85.20 19.94Q85.73 19.68 86.05 19.24L86.05 19.24L86.37 20.19Q85.65 21.23 84.36 21.80Q83.08 22.36 81.63 22.36L81.63 22.36Q79.74 22.36 78.57 21.43Q77.40 20.50 77.40 19.05ZM99.10 9.36L99.10 9.36L99.10 19.44Q99.10 19.93 99.20 20.14Q99.31 20.36 99.55 20.45L99.55 20.45L99.97 20.59Q100.26 20.70 100.39 20.88Q100.51 21.06 100.51 21.30L100.51 21.30Q100.51 21.62 100.30 21.81Q100.08 22 99.62 22L99.62 22L93.65 22Q93.19 22 92.97 21.81Q92.76 21.62 92.76 21.30L92.76 21.30Q92.76 21.06 92.89 20.89Q93.02 20.71 93.30 20.59L93.30 20.59L93.74 20.45Q93.98 20.36 94.08 20.14Q94.19 19.93 94.19 19.44L94.19 19.44L94.19 12.09Q94.19 11.70 94.07 11.52Q93.95 11.35 93.71 11.29L93.71 11.29L93.19 11.22Q92.91 11.14 92.79 10.99Q92.67 10.84 92.67 10.60L92.67 10.60Q92.67 10.32 92.83 10.16Q93.00 9.99 93.43 9.82L93.43 9.82L96.31 8.74Q96.96 8.50 97.33 8.40Q97.70 8.29 97.98 8.29L97.98 8.29Q98.54 8.29 98.82 8.59Q99.10 8.90 99.10 9.36ZM96.34 6.61L96.34 6.61Q95.00 6.61 94.21 5.96Q93.42 5.31 93.42 4.21L93.42 4.21Q93.42 3.11 94.21 2.48Q95.00 1.84 96.34 1.84L96.34 1.84Q97.69 1.84 98.48 2.48Q99.27 3.11 99.27 4.21L99.27 4.21Q99.27 5.31 98.48 5.96Q97.69 6.61 96.34 6.61Z"/></g>
        
      </svg>
    